<?xml version="1.0" encoding="UTF-8"?>
<!DOCTYPE svg PUBLIC "-//W3C//DTD SVG 1.1//EN" "http://www.w3.org/Graphics/SVG/1.1/DTD/svg11.dtd">
<svg xmlns="http://www.w3.org/2000/svg" version="1.1" width="100px" height="100px" style="shape-rendering:geometricPrecision; text-rendering:geometricPrecision; image-rendering:optimizeQuality; fill-rule:evenodd; clip-rule:evenodd" xmlns:xlink="http://www.w3.org/1999/xlink">
<g><path style="opacity:1" fill="#000000" d="M 75.5,3.5 C 75.5,6.5 75.5,9.5 75.5,12.5C 74.7784,12.0825 74.2784,11.4158 74,10.5C 72.5,12 71,13.5 69.5,15C 70.4158,15.2784 71.0825,15.7784 71.5,16.5C 70.1266,16.6567 68.7932,16.49 67.5,16C 68.9763,13.3568 70.9763,11.1901 73.5,9.5C 74.4287,8.31116 74.762,6.97782 74.5,5.5C 68.2502,6.56019 65.2502,10.0602 65.5,16C 64.552,16.4828 63.552,16.6495 62.5,16.5C 63.8333,9.16667 68.1667,4.83333 75.5,3.5 Z"/></g>
<g><path style="opacity:1" fill="#000000" d="M 80.5,3.5 C 87.8333,4.83333 92.1667,9.16667 93.5,16.5C 90.5,16.5 87.5,16.5 84.5,16.5C 84.9175,15.7784 85.5842,15.2784 86.5,15C 85.1772,14.1841 84.5106,13.0174 84.5,11.5C 83.5041,11.5858 82.6708,11.2524 82,10.5C 81.7216,11.4158 81.2216,12.0825 80.5,12.5C 80.5,9.5 80.5,6.5 80.5,3.5 Z"/></g>
<g><path style="opacity:1" fill="#020102" d="M 12.5,26.5 C 15.6065,26.8259 17.9398,25.6592 19.5,23C 18.8576,19.543 19.5243,16.2096 21.5,13C 20.5769,10.9592 20.2436,8.7925 20.5,6.5C 23.8333,6.5 27.1667,6.5 30.5,6.5C 30.9518,10.1629 31.4518,13.8296 32,17.5C 32.3333,14.8333 32.6667,12.1667 33,9.5C 33.5,8.33333 34.3333,7.5 35.5,7C 44.1603,6.50025 52.8269,6.33358 61.5,6.5C 61.9926,8.80562 62.3259,11.139 62.5,13.5C 60.8333,13.5 59.1667,13.5 57.5,13.5C 58.0107,20.4357 58.0107,27.4357 57.5,34.5C 59.8333,34.5 62.1667,34.5 64.5,34.5C 68.1384,45.8892 69.8051,45.8892 69.5,34.5C 71.1992,34.6602 72.8659,34.4935 74.5,34C 67.6025,32.6027 63.6025,28.4361 62.5,21.5C 65.5,21.5 68.5,21.5 71.5,21.5C 71.0825,22.2216 70.4158,22.7216 69.5,23C 71,24.5 72.5,26 74,27.5C 74.2784,26.5842 74.7784,25.9175 75.5,25.5C 75.5,28.5 75.5,31.5 75.5,34.5C 77.1667,34.5 78.8333,34.5 80.5,34.5C 80.5,31.5 80.5,28.5 80.5,25.5C 81.2216,25.9175 81.7216,26.5842 82,27.5C 83.5,26 85,24.5 86.5,23C 85.5842,22.7216 84.9175,22.2216 84.5,21.5C 87.5,21.5 90.5,21.5 93.5,21.5C 92.3975,28.4361 88.3975,32.6027 81.5,34C 85.1667,34.3333 88.8333,34.6667 92.5,35C 94.0097,36.3513 95.0097,38.018 95.5,40C 95.0281,49.9128 94.0281,59.7462 92.5,69.5C 85.5,69.5 78.5,69.5 71.5,69.5C 71.5,70.5 71.5,71.5 71.5,72.5C 69.3453,72.628 67.3453,72.128 65.5,71C 65.8333,70.6667 66.1667,70.3333 66.5,70C 64.5997,68.7018 62.933,68.5351 61.5,69.5C 61.1667,69.5 60.8333,69.5 60.5,69.5C 60.1583,68.6618 59.4916,68.3284 58.5,68.5C 58.5,68.1667 58.5,67.8333 58.5,67.5C 57.5386,65.7354 57.2053,63.7354 57.5,61.5C 57.7373,60.209 57.404,59.209 56.5,58.5C 55.6225,50.6573 53.9558,42.9906 51.5,35.5C 50.1687,36.1662 48.6687,36.1662 47,35.5C 45.0289,35.4683 43.5289,36.3016 42.5,38C 42.3737,40.2342 42.7071,42.5676 43.5,45C 41.6992,45.3173 41.3659,45.984 42.5,47C 41.1198,48.3236 40.7865,49.6569 41.5,51C 40.0085,53.6212 39.3418,56.4545 39.5,59.5C 38.469,61.9608 37.8023,64.6275 37.5,67.5C 39.5,67.5 41.5,67.5 43.5,67.5C 42.8333,68.1667 42.1667,68.8333 41.5,69.5C 38.4816,69.3354 35.4816,69.502 32.5,70C 33.5,70.3333 34.5,70.6667 35.5,71C 32.0618,73.1909 29.0618,72.8575 26.5,70C 20.1754,69.5005 13.8421,69.3338 7.5,69.5C 7.31465,67.8042 6.48131,66.4709 5,65.5C 4.33333,62.8333 4.33333,60.1667 5,57.5C 6.7889,55.771 8.95557,55.1043 11.5,55.5C 8.97436,53.1463 6.80769,50.4796 5,47.5C 4.04413,43.428 4.54413,39.5946 6.5,36C 5.77941,31.3806 5.11274,26.7139 4.5,22C 5.42486,16.8841 5.75819,11.7175 5.5,6.5C 7.83333,6.5 10.1667,6.5 12.5,6.5C 12.5,13.1667 12.5,19.8333 12.5,26.5 Z M 40.5,15.5 C 43.5448,15.5079 46.5448,15.8413 49.5,16.5C 50.5369,20.4365 50.8702,26.4365 50.5,34.5C 48.4727,34.6621 46.4727,34.4955 44.5,34C 49.5539,26.2017 48.2206,20.035 40.5,15.5 Z M 38.5,24.5 C 35.2297,24.6978 33.2297,23.1978 32.5,20C 34.9042,20.7279 36.9042,22.2279 38.5,24.5 Z M 38.5,24.5 C 40.2252,24.8425 40.7252,25.8425 40,27.5C 39.4867,26.4734 38.9867,25.4734 38.5,24.5 Z M 25.5,29.5 C 26.339,30.6412 27.0057,31.9745 27.5,33.5C 26.635,34.5827 25.635,34.7494 24.5,34C 25.3802,32.6439 25.7135,31.1439 25.5,29.5 Z M 40.5,34.5 C 43.3356,34.2022 43.8356,34.8689 42,36.5C 41.479,42.2507 40.479,47.9173 39,53.5C 36.1009,54.8744 35.9342,56.3744 38.5,58C 37.4177,61.4049 36.5844,64.9049 36,68.5C 35.1681,59.8142 35.3348,51.1475 36.5,42.5C 37.7362,43.2458 39.0695,43.5792 40.5,43.5C 40.5,40.5 40.5,37.5 40.5,34.5 Z M 57.5,34.5 C 57.3718,51.6062 56.0385,51.6062 53.5,34.5C 54.8333,34.5 56.1667,34.5 57.5,34.5 Z M 24.5,42.5 C 26.4698,50.7688 27.1364,59.4355 26.5,68.5C 24.4727,68.6621 22.4727,68.4955 20.5,68C 21.3333,67.1667 22.1667,66.3333 23,65.5C 23.6667,60.8333 23.6667,56.1667 23,51.5C 20.5,49.6667 18,47.8333 15.5,46C 18.7305,45.1389 21.7305,43.9722 24.5,42.5 Z M 11.5,55.5 C 14.2436,56.0717 15.0769,57.7383 14,60.5C 13.6339,58.5483 12.8005,56.8816 11.5,55.5 Z M 65.5,57.5 C 67.339,60.5286 68.6724,63.8619 69.5,67.5C 68.3112,68.4287 66.9778,68.762 65.5,68.5C 65.5,64.8333 65.5,61.1667 65.5,57.5 Z"/></g>
<g><path style="opacity:1" fill="#8e242e" d="M 80.5,3.5 C 80.5,6.5 80.5,9.5 80.5,12.5C 78.8333,13.8333 77.1667,13.8333 75.5,12.5C 75.5,9.5 75.5,6.5 75.5,3.5C 77.1667,2.16667 78.8333,2.16667 80.5,3.5 Z"/></g>
<g><path style="opacity:1" fill="#e5e8d4" d="M 9.5,14.5 C 8.50838,14.3284 7.84171,14.6618 7.5,15.5C 6.76934,13.197 6.43601,10.8637 6.5,8.5C 8.04533,7.54811 9.71199,7.21478 11.5,7.5C 11.8342,10.188 11.1675,12.5214 9.5,14.5 Z"/></g>
<g><path style="opacity:1" fill="#94282b" d="M 71.5,16.5 C 72.8333,18.1667 72.8333,19.8333 71.5,21.5C 68.5,21.5 65.5,21.5 62.5,21.5C 61.1667,19.8333 61.1667,18.1667 62.5,16.5C 63.552,16.6495 64.552,16.4828 65.5,16C 65.2502,10.0602 68.2502,6.56019 74.5,5.5C 74.762,6.97782 74.4287,8.31116 73.5,9.5C 70.9763,11.1901 68.9763,13.3568 67.5,16C 68.7932,16.49 70.1266,16.6567 71.5,16.5 Z"/></g>
<g><path style="opacity:1" fill="#c7484a" d="M 84.5,11.5 C 82.4551,10.0772 81.4551,8.0772 81.5,5.5C 87.1667,6.5 90.5,9.83333 91.5,15.5C 90.0222,15.762 88.6888,15.4287 87.5,14.5C 86.8118,13.1451 85.8118,12.1451 84.5,11.5 Z"/></g>
<g><path style="opacity:1" fill="#dee3ce" d="M 47.5,7.5 C 51.688,8.11292 56.0213,8.11292 60.5,7.5C 60.4208,8.93047 60.7542,10.2638 61.5,11.5C 59.9547,12.4519 58.288,12.7852 56.5,12.5C 57.0241,19.3553 57.0241,26.3553 56.5,33.5C 54.8333,33.5 53.1667,33.5 51.5,33.5C 52.001,29.4131 52.001,25.4131 51.5,21.5C 51.6667,20.5 51.8333,19.5 52,18.5C 52.6543,19.6956 53.1543,19.6956 53.5,18.5C 51.3636,17.1483 51.0302,15.4817 52.5,13.5C 48.6252,13.2947 46.9585,11.2947 47.5,7.5 Z"/></g>
<g><path style="opacity:1" fill="#d6d9c9" d="M 9.5,14.5 C 11.369,16.6353 12.0356,19.3019 11.5,22.5C 4.55516,23.6601 3.55516,21.8268 8.5,17C 7.94404,16.6174 7.61071,16.1174 7.5,15.5C 7.84171,14.6618 8.50838,14.3284 9.5,14.5 Z"/></g>
<g><path style="opacity:1" fill="#631b21" d="M 75.5,15.5 C 81.1581,14.6794 82.8248,16.846 80.5,22C 74.741,23.1387 73.0744,20.972 75.5,15.5 Z"/></g>
<g><path style="opacity:1" fill="#8f212d" d="M 84.5,16.5 C 87.5,16.5 90.5,16.5 93.5,16.5C 94.8333,18.1667 94.8333,19.8333 93.5,21.5C 90.5,21.5 87.5,21.5 84.5,21.5C 83.1667,19.8333 83.1667,18.1667 84.5,16.5 Z"/></g>
<g><path style="opacity:1" fill="#e3ead4" d="M 41.5,28.5 C 41.7852,26.712 41.4519,25.0453 40.5,23.5C 34.6284,21.0056 32.4617,16.6723 34,10.5C 34.5,9.33333 35.3333,8.5 36.5,8C 39.6041,7.87326 42.6041,7.7066 45.5,7.5C 47.4333,14.7526 45.6,16.0859 40,11.5C 38.2816,13.2021 38.115,15.0355 39.5,17C 47.1718,20.6279 48.5052,25.9613 43.5,33C 36.1699,34.6662 33.0032,31.8329 34,24.5C 36.6741,25.7141 39.1741,27.0474 41.5,28.5 Z M 38.5,24.5 C 38.9867,25.4734 39.4867,26.4734 40,27.5C 40.7252,25.8425 40.2252,24.8425 38.5,24.5 Z"/></g>
<g><path style="opacity:1" fill="#e2ebd2" d="M 12.5,26.5 C 12.5,26.8333 12.5,27.1667 12.5,27.5C 10.5648,28.1495 8.56475,28.4828 6.5,28.5C 6.5,26.8333 6.5,25.1667 6.5,23.5C 8.16667,23.5 9.83333,23.5 11.5,23.5C 11.2627,24.791 11.596,25.791 12.5,26.5 Z"/></g>
<g><path style="opacity:1" fill="#9b2634" d="M 80.5,25.5 C 80.5,28.5 80.5,31.5 80.5,34.5C 78.8333,34.5 77.1667,34.5 75.5,34.5C 75.5,31.5 75.5,28.5 75.5,25.5C 77.1667,24.1667 78.8333,24.1667 80.5,25.5 Z"/></g>
<g><path style="opacity:1" fill="#a12e2e" d="M 64.5,22.5 C 65.9778,22.238 67.3112,22.5713 68.5,23.5C 69.8333,25.5 71.5,27.1667 73.5,28.5C 74.4287,29.6888 74.762,31.0222 74.5,32.5C 68.8333,31.5 65.5,28.1667 64.5,22.5 Z"/></g>
<g><path style="opacity:1" fill="#dde5d0" d="M 29.5,27.5 C 29.1583,28.3382 28.4916,28.6716 27.5,28.5C 26.5,28.5 25.5,28.5 24.5,28.5C 25.1667,32.5 23.5,34.1667 19.5,33.5C 18.8638,28.9425 18.8638,24.7758 19.5,21C 20.5248,18.9285 21.3581,16.7619 22,14.5C 22.3333,14.8333 22.6667,15.1667 23,15.5C 23.3742,14.5838 23.8742,13.7504 24.5,13C 21.8003,12.0508 20.967,10.2175 22,7.5C 24.2884,7.73745 26.7884,7.73745 29.5,7.5C 29.67,8.82207 29.3366,9.98873 28.5,11C 30.1089,14.4851 31.4423,18.1518 32.5,22C 30.0087,22.6259 30.0087,23.4593 32.5,24.5C 31.2299,25.2876 30.2299,26.2876 29.5,27.5 Z"/></g>
<g><path style="opacity:1" fill="#000000" d="M 25.5,16.5 C 26.2161,18.5563 26.8828,20.723 27.5,23C 26.5,23.6667 25.5,23.6667 24.5,23C 24.6697,20.7289 25.003,18.5622 25.5,16.5 Z"/></g>
<g><path style="opacity:1" fill="#b6383d" d="M 87.5,22.5 C 88.8333,22.5 90.1667,22.5 91.5,22.5C 90.5,28.1667 87.1667,31.5 81.5,32.5C 81.238,31.0222 81.5713,29.6888 82.5,28.5C 84.9377,27.0692 86.6044,25.0692 87.5,22.5 Z"/></g>
<g><path style="opacity:1" fill="#e4f4db" d="M 29.5,27.5 C 30.5,27.5 31.5,27.5 32.5,27.5C 32.2606,29.4672 32.5939,31.3005 33.5,33C 29.4962,34.1046 27.4962,32.6046 27.5,28.5C 28.4916,28.6716 29.1583,28.3382 29.5,27.5 Z"/></g>
<g><path style="opacity:1" fill="#dee7d2" d="M 12.5,27.5 C 17.5,26.5 19.5,28.5 18.5,33.5C 14.5,33.5 10.5,33.5 6.5,33.5C 6.35055,32.448 6.51722,31.448 7,30.5C 9.20916,30.0108 11.0425,29.0108 12.5,27.5 Z"/></g>
<g><path style="opacity:1" fill="#e2e5cd" d="M 69.5,52.5 C 69.1788,54.0481 68.1788,54.7148 66.5,54.5C 66.7644,52.8268 66.2644,51.1601 65,49.5C 64.5026,52.146 64.3359,54.8127 64.5,57.5C 62.1137,57.2587 60.1137,57.9254 58.5,59.5C 57.9141,51.6417 57.9141,43.6417 58.5,35.5C 60.1667,35.5 61.8333,35.5 63.5,35.5C 64.8126,39.5159 66.8126,43.6826 69.5,48C 69.0338,49.2988 69.0338,50.7988 69.5,52.5 Z"/></g>
<g><path style="opacity:1" fill="#d0d7c3" d="M 83.5,46.5 C 82.4863,47.6737 81.153,48.3404 79.5,48.5C 78.1889,44.3171 78.1889,39.9838 79.5,35.5C 80.4776,35.9767 81.3109,36.6433 82,37.5C 83.3528,36.2958 85.0194,35.6292 87,35.5C 90.7515,34.9188 93.2515,36.4188 94.5,40C 90.3715,43.7324 86.8715,43.2324 84,38.5C 84.8103,41.1567 84.6436,43.8234 83.5,46.5 Z"/></g>
<g><path style="opacity:1" fill="#e5e4cd" d="M 34.5,56.5 C 33.7784,56.9175 33.2784,57.5842 33,58.5C 31.3005,57.5939 29.4672,57.2606 27.5,57.5C 27.5672,52.263 27.9005,46.9296 28.5,41.5C 28.3333,41.1667 28.1667,40.8333 28,40.5C 22.8792,44.095 21.2125,42.7616 23,36.5C 26.0859,34.78 28.4192,35.4466 30,38.5C 30.6667,35.8333 31.3333,35.8333 32,38.5C 32.4828,37.552 32.6495,36.552 32.5,35.5C 34.8333,35.5 37.1667,35.5 39.5,35.5C 39.6633,37.8568 39.4966,40.1902 39,42.5C 37.6439,41.6198 36.1439,41.2865 34.5,41.5C 34.5,46.5 34.5,51.5 34.5,56.5 Z"/></g>
<g><path style="opacity:1" fill="#dee5cc" d="M 76.5,54.5 C 74.7428,53.708 73.4095,52.3747 72.5,50.5C 71.8165,50.8627 71.1499,51.1961 70.5,51.5C 69.949,46.3129 69.949,40.9796 70.5,35.5C 72.604,35.2011 74.604,35.5344 76.5,36.5C 74.2524,37.324 74.0858,38.324 76,39.5C 76.4993,44.4889 76.6659,49.4889 76.5,54.5 Z"/></g>
<g><path style="opacity:1" fill="#e5e3ce" d="M 22.5,58.5 C 20.2362,57.7814 17.9029,57.448 15.5,57.5C 13.2632,54.5963 10.5966,51.9297 7.5,49.5C 4.59163,44.7103 4.92497,40.2103 8.5,36C 13.0624,35.7929 17.3957,35.9595 21.5,36.5C 21.5,38.8333 21.5,41.1667 21.5,43.5C 19.8008,43.6602 18.1341,43.4935 16.5,43C 13.4188,39.4573 12.0855,39.624 12.5,43.5C 10.3185,45.1296 10.3185,46.4629 12.5,47.5C 13.086,47.2907 13.586,46.9574 14,46.5C 16.6667,48.5 19.3333,50.5 22,52.5C 22.4955,54.4727 22.6621,56.4727 22.5,58.5 Z"/></g>
<g><path style="opacity:1" fill="#e5e7d3" d="M 56.5,58.5 C 56.5654,58.9382 56.3988,59.2716 56,59.5C 53.9687,56.777 52.302,53.777 51,50.5C 49.1197,49.0705 47.6197,49.4038 46.5,51.5C 46.7093,52.086 47.0426,52.586 47.5,53C 44.7808,54.5967 42.6141,56.7634 41,59.5C 40.51,60.7932 40.3433,62.1266 40.5,63.5C 39.5655,62.4324 39.2322,61.099 39.5,59.5C 39.3418,56.4545 40.0085,53.6212 41.5,51C 40.7865,49.6569 41.1198,48.3236 42.5,47C 41.3659,45.984 41.6992,45.3173 43.5,45C 42.7071,42.5676 42.3737,40.2342 42.5,38C 43.5289,36.3016 45.0289,35.4683 47,35.5C 48.6687,36.1662 50.1687,36.1662 51.5,35.5C 53.9558,42.9906 55.6225,50.6573 56.5,58.5 Z"/></g>
<g><path style="opacity:1" fill="#000000" d="M 47.5,44.5 C 49.0878,45.6353 49.4212,46.9686 48.5,48.5C 46.2997,47.6754 45.9663,46.3421 47.5,44.5 Z"/></g>
<g><path style="opacity:1" fill="#e7dfcf" d="M 83.5,46.5 C 84.4794,49.6248 84.8128,52.9581 84.5,56.5C 82.3792,56.3253 80.3792,56.6586 78.5,57.5C 78.3677,54.4299 78.701,51.4299 79.5,48.5C 81.153,48.3404 82.4863,47.6737 83.5,46.5 Z"/></g>
<g><path style="opacity:1" fill="#221a29" d="M 56.5,58.5 C 57.404,59.209 57.7373,60.209 57.5,61.5C 56.8476,62.4486 56.5143,63.6153 56.5,65C 56.6083,66.6811 57.2749,67.8478 58.5,68.5C 59.4916,68.3284 60.1583,68.6618 60.5,69.5C 59.2086,70.4728 59.2086,71.4728 60.5,72.5C 59.675,73.3857 58.675,73.719 57.5,73.5C 57.2172,72.7109 56.7172,72.0442 56,71.5C 55.235,73.0657 55.4017,74.3991 56.5,75.5C 56.5,76.5 56.5,77.5 56.5,78.5C 55.9035,79.9354 55.9035,81.602 56.5,83.5C 55.1667,83.5 53.8333,83.5 52.5,83.5C 52.0372,80.6697 51.3705,78.003 50.5,75.5C 50.6567,74.1266 50.49,72.7932 50,71.5C 49.2828,72.0442 48.7828,72.7109 48.5,73.5C 47.4925,76.8437 46.4925,80.1771 45.5,83.5C 44.5,83.5 43.5,83.5 42.5,83.5C 42.5,82.1667 42.5,80.8333 42.5,79.5C 43.1386,78.9032 43.472,78.0698 43.5,77C 43.3158,75.6244 42.6491,74.7911 41.5,74.5C 41.5,73.8333 41.5,73.1667 41.5,72.5C 41.5,71.5 41.5,70.5 41.5,69.5C 42.5,69.5 43.5,69.5 44.5,69.5C 44.7373,68.209 44.404,67.209 43.5,66.5C 42.9002,65.1001 41.9002,64.1001 40.5,63.5C 40.3433,62.1266 40.51,60.7932 41,59.5C 42.6141,56.7634 44.7808,54.5967 47.5,53C 47.0426,52.586 46.7093,52.086 46.5,51.5C 47.6197,49.4038 49.1197,49.0705 51,50.5C 52.302,53.777 53.9687,56.777 56,59.5C 56.3988,59.2716 56.5654,58.9382 56.5,58.5 Z"/></g>
<g><path style="opacity:1" fill="#eae3d2" d="M 93.5,56.5 C 91.3792,56.6747 89.3792,56.3414 87.5,55.5C 87.3347,51.8183 87.5014,48.1516 88,44.5C 89.4411,43.7402 90.9411,43.0736 92.5,42.5C 93.4933,47.1196 93.8266,51.7863 93.5,56.5 Z"/></g>
<g><path style="opacity:1" fill="#e3c0ae" d="M 76.5,54.5 C 76.5,55.5 76.5,56.5 76.5,57.5C 73.5,57.5 70.5,57.5 67.5,57.5C 66.8902,56.609 66.5569,55.609 66.5,54.5C 68.1788,54.7148 69.1788,54.0481 69.5,52.5C 70.1667,52.5 70.5,52.1667 70.5,51.5C 71.1499,51.1961 71.8165,50.8627 72.5,50.5C 73.4095,52.3747 74.7428,53.708 76.5,54.5 Z"/></g>
<g><path style="opacity:1" fill="#c15753" d="M 87.5,55.5 C 89.3792,56.3414 91.3792,56.6747 93.5,56.5C 93.7947,58.7354 93.4614,60.7354 92.5,62.5C 92.6495,61.448 92.4828,60.448 92,59.5C 90.6439,60.3802 89.1439,60.7135 87.5,60.5C 87.5,58.8333 87.5,57.1667 87.5,55.5 Z"/></g>
<g><path style="opacity:1" fill="#b93839" d="M 34.5,56.5 C 34.5,60.1667 34.5,63.8333 34.5,67.5C 32.1667,67.5 29.8333,67.5 27.5,67.5C 27.5,64.1667 27.5,60.8333 27.5,57.5C 29.4672,57.2606 31.3005,57.5939 33,58.5C 33.2784,57.5842 33.7784,56.9175 34.5,56.5 Z"/></g>
<g><path style="opacity:1" fill="#bc4042" d="M 64.5,57.5 C 64.5,60.8333 64.5,64.1667 64.5,67.5C 62.5,67.5 60.5,67.5 58.5,67.5C 58.5,64.8333 58.5,62.1667 58.5,59.5C 60.1137,57.9254 62.1137,57.2587 64.5,57.5 Z"/></g>
<g><path style="opacity:1" fill="#ba3e41" d="M 84.5,56.5 C 84.3379,58.5273 84.5045,60.5273 85,62.5C 85.9947,61.9341 86.828,61.2674 87.5,60.5C 89.1439,60.7135 90.6439,60.3802 92,59.5C 92.4828,60.448 92.6495,61.448 92.5,62.5C 92.7035,64.3904 92.0368,65.8904 90.5,67C 86.5138,67.4988 82.5138,67.6655 78.5,67.5C 78.5,64.1667 78.5,60.8333 78.5,57.5C 80.3792,56.6586 82.3792,56.3253 84.5,56.5 Z"/></g>
<g><path style="opacity:1" fill="#bc3d42" d="M 15.5,57.5 C 17.9029,57.448 20.2362,57.7814 22.5,58.5C 23.1252,61.9705 22.1252,64.8038 19.5,67C 15.8333,67.6667 12.1667,67.6667 8.5,67C 4.9905,63.952 4.65716,60.6187 7.5,57C 9.90635,56.2211 11.573,57.0544 12.5,59.5C 12.2907,60.086 11.9574,60.586 11.5,61C 12.7932,61.49 14.1266,61.6567 15.5,61.5C 15.5,60.1667 15.5,58.8333 15.5,57.5 Z"/></g>
<g><path style="opacity:1" fill="#bc3a41" d="M 67.5,57.5 C 70.5,57.5 73.5,57.5 76.5,57.5C 76.5,60.8333 76.5,64.1667 76.5,67.5C 74.396,67.7989 72.396,67.4656 70.5,66.5C 69.6502,63.4273 68.6502,60.4273 67.5,57.5 Z"/></g>
<g><path style="opacity:1" fill="#c24c4d" d="M 39.5,59.5 C 39.2322,61.099 39.5655,62.4324 40.5,63.5C 41.9002,64.1001 42.9002,65.1001 43.5,66.5C 43.5,66.8333 43.5,67.1667 43.5,67.5C 41.5,67.5 39.5,67.5 37.5,67.5C 37.8023,64.6275 38.469,61.9608 39.5,59.5 Z"/></g>
<g><path style="opacity:1" fill="#eeecdf" d="M 57.5,61.5 C 57.2053,63.7354 57.5386,65.7354 58.5,67.5C 58.5,67.8333 58.5,68.1667 58.5,68.5C 57.2749,67.8478 56.6083,66.6811 56.5,65C 56.5143,63.6153 56.8476,62.4486 57.5,61.5 Z"/></g>
<g><path style="opacity:1" fill="#f6f6ec" d="M 43.5,66.5 C 44.404,67.209 44.7373,68.209 44.5,69.5C 43.5,69.5 42.5,69.5 41.5,69.5C 42.1667,68.8333 42.8333,68.1667 43.5,67.5C 43.5,67.1667 43.5,66.8333 43.5,66.5 Z"/></g>
<g><path style="opacity:1" fill="#4e1429" d="M 71.5,72.5 C 69.3432,73.4067 67.0098,74.0733 64.5,74.5C 62.2729,73.5994 61.2729,71.9328 61.5,69.5C 62.933,68.5351 64.5997,68.7018 66.5,70C 66.1667,70.3333 65.8333,70.6667 65.5,71C 67.3453,72.128 69.3453,72.628 71.5,72.5 Z"/></g>
<g><path style="opacity:1" fill="#4d1930" d="M 92.5,69.5 C 92.5,70.8333 92.5,72.1667 92.5,73.5C 86.4908,73.6662 80.4908,73.4995 74.5,73C 73.6477,71.2716 72.6477,71.105 71.5,72.5C 71.5,71.5 71.5,70.5 71.5,69.5C 78.5,69.5 85.5,69.5 92.5,69.5 Z"/></g>
<g><path style="opacity:1" fill="#601a39" d="M 7.5,69.5 C 13.8421,69.3338 20.1754,69.5005 26.5,70C 29.0618,72.8575 32.0618,73.1909 35.5,71C 34.5,70.6667 33.5,70.3333 32.5,70C 35.4816,69.502 38.4816,69.3354 41.5,69.5C 41.5,70.5 41.5,71.5 41.5,72.5C 30.4092,73.2835 19.0759,73.6169 7.5,73.5C 7.5,72.1667 7.5,70.8333 7.5,69.5 Z"/></g>
<g><path style="opacity:1" fill="#888686" d="M 60.5,69.5 C 60.8333,69.5 61.1667,69.5 61.5,69.5C 61.2729,71.9328 62.2729,73.5994 64.5,74.5C 64.5,75.1667 64.5,75.8333 64.5,76.5C 64.1667,76.5 63.8333,76.5 63.5,76.5C 61.4261,75.4861 59.4261,74.4861 57.5,73.5C 58.675,73.719 59.675,73.3857 60.5,72.5C 59.2086,71.4728 59.2086,70.4728 60.5,69.5 Z"/></g>
<g><path style="opacity:1" fill="#d73a44" d="M 41.5,72.5 C 41.5,73.1667 41.5,73.8333 41.5,74.5C 42.3007,76.0418 42.634,77.7085 42.5,79.5C 40.4357,75.4748 38.769,75.8081 37.5,80.5C 38.1272,81.4168 38.4606,82.4168 38.5,83.5C 37.8333,83.5 37.1667,83.5 36.5,83.5C 36.6567,82.1266 36.49,80.7932 36,79.5C 33.8606,78.3753 32.6939,77.0419 32.5,75.5C 30.9462,77.9329 30.2796,80.5995 30.5,83.5C 29.5,83.5 28.5,83.5 27.5,83.5C 29.3232,79.8083 28.3232,77.1416 24.5,75.5C 23.4223,77.8985 23.4223,80.5651 24.5,83.5C 23.1667,83.5 21.8333,83.5 20.5,83.5C 20.3573,81.7376 20.6906,80.0709 21.5,78.5C 20.9747,77.8076 20.3081,77.3076 19.5,77C 20.4506,76.2825 20.6172,75.4491 20,74.5C 16.7748,76.9225 15.9415,79.9225 17.5,83.5C 16.5,83.5 15.5,83.5 14.5,83.5C 14.5191,81.9397 14.8524,80.4397 15.5,79C 14.4912,75.918 13.1578,75.918 11.5,79C 12.4132,80.4139 12.4132,81.9139 11.5,83.5C 10.8333,83.5 10.1667,83.5 9.5,83.5C 9.80393,82.8501 10.1373,82.1835 10.5,81.5C 8.94232,79.0093 7.94232,76.3426 7.5,73.5C 19.0759,73.6169 30.4092,73.2835 41.5,72.5 Z"/></g>
<g><path style="opacity:1" fill="#f3edc9" d="M 50.5,75.5 C 49.8333,74.8333 49.1667,74.1667 48.5,73.5C 48.7828,72.7109 49.2828,72.0442 50,71.5C 50.49,72.7932 50.6567,74.1266 50.5,75.5 Z"/></g>
<g><path style="opacity:1" fill="#fde7d7" d="M 57.5,73.5 C 56.6618,73.8417 56.3284,74.5084 56.5,75.5C 55.4017,74.3991 55.235,73.0657 56,71.5C 56.7172,72.0442 57.2172,72.7109 57.5,73.5 Z"/></g>
<g><path style="opacity:1" fill="#de434a" d="M 57.5,73.5 C 59.4261,74.4861 61.4261,75.4861 63.5,76.5C 60.4295,78.0519 59.7628,80.3852 61.5,83.5C 60.8333,83.5 60.1667,83.5 59.5,83.5C 59.7022,81.0108 59.2022,78.6775 58,76.5C 57.7216,77.4158 57.2216,78.0825 56.5,78.5C 56.5,77.5 56.5,76.5 56.5,75.5C 56.3284,74.5084 56.6618,73.8417 57.5,73.5 Z"/></g>
<g><path style="opacity:1" fill="#d33841" d="M 92.5,73.5 C 91.5543,75.1321 90.5543,76.7988 89.5,78.5C 90.6808,80.198 90.6808,81.8647 89.5,83.5C 88.4728,82.2086 87.4728,82.2086 86.5,83.5C 85.2431,81.632 85.5764,79.9653 87.5,78.5C 86.5664,75.0352 85.0664,74.7019 83,77.5C 82.187,79.4357 81.687,81.4357 81.5,83.5C 80.5,83.5 79.5,83.5 78.5,83.5C 79.9678,80.2658 79.6345,77.2658 77.5,74.5C 73.8918,76.7007 72.8918,79.7007 74.5,83.5C 73.1667,83.5 71.8333,83.5 70.5,83.5C 70.3601,81.8762 71.0267,80.7096 72.5,80C 70.9512,78.786 69.7845,77.286 69,75.5C 68.3645,76.9663 67.5312,78.2997 66.5,79.5C 66.8457,80.6956 67.3457,80.6956 68,79.5C 68.4828,80.448 68.6495,81.448 68.5,82.5C 67.2921,83.2341 65.9587,83.5674 64.5,83.5C 65.4171,80.9952 65.4171,78.6618 64.5,76.5C 64.5,75.8333 64.5,75.1667 64.5,74.5C 67.0098,74.0733 69.3432,73.4067 71.5,72.5C 72.6477,71.105 73.6477,71.2716 74.5,73C 80.4908,73.4995 86.4908,73.6662 92.5,73.5 Z"/></g>
<g><path style="opacity:1" fill="#2d192e" d="M 78.5,83.5 C 77.1667,83.5 75.8333,83.5 74.5,83.5C 72.8918,79.7007 73.8918,76.7007 77.5,74.5C 79.6345,77.2658 79.9678,80.2658 78.5,83.5 Z"/></g>
<g><path style="opacity:1" fill="#5c1e38" d="M 14.5,83.5 C 13.5,83.5 12.5,83.5 11.5,83.5C 12.4132,81.9139 12.4132,80.4139 11.5,79C 13.1578,75.918 14.4912,75.918 15.5,79C 14.8524,80.4397 14.5191,81.9397 14.5,83.5 Z"/></g>
<g><path style="opacity:1" fill="#311b30" d="M 27.5,83.5 C 26.5,83.5 25.5,83.5 24.5,83.5C 23.4223,80.5651 23.4223,77.8985 24.5,75.5C 28.3232,77.1416 29.3232,79.8083 27.5,83.5 Z"/></g>
<g><path style="opacity:1" fill="#978e80" d="M 41.5,74.5 C 42.6491,74.7911 43.3158,75.6244 43.5,77C 43.472,78.0698 43.1386,78.9032 42.5,79.5C 42.634,77.7085 42.3007,76.0418 41.5,74.5 Z"/></g>
<g><path style="opacity:1" fill="#351b2f" d="M 63.5,76.5 C 63.8333,76.5 64.1667,76.5 64.5,76.5C 65.4171,78.6618 65.4171,80.9952 64.5,83.5C 63.5,83.5 62.5,83.5 61.5,83.5C 59.7628,80.3852 60.4295,78.0519 63.5,76.5 Z"/></g>
<g><path style="opacity:1" fill="#561d33" d="M 70.5,83.5 C 69.5084,83.6716 68.8417,83.3382 68.5,82.5C 68.6495,81.448 68.4828,80.448 68,79.5C 67.3457,80.6956 66.8457,80.6956 66.5,79.5C 67.5312,78.2997 68.3645,76.9663 69,75.5C 69.7845,77.286 70.9512,78.786 72.5,80C 71.0267,80.7096 70.3601,81.8762 70.5,83.5 Z"/></g>
<g><path style="opacity:1" fill="#2e1b34" d="M 20.5,83.5 C 19.5,83.5 18.5,83.5 17.5,83.5C 15.9415,79.9225 16.7748,76.9225 20,74.5C 20.6172,75.4491 20.4506,76.2825 19.5,77C 20.3081,77.3076 20.9747,77.8076 21.5,78.5C 20.6906,80.0709 20.3573,81.7376 20.5,83.5 Z"/></g>
<g><path style="opacity:1" fill="#391c2e" d="M 36.5,83.5 C 34.5,83.5 32.5,83.5 30.5,83.5C 30.2796,80.5995 30.9462,77.9329 32.5,75.5C 32.6939,77.0419 33.8606,78.3753 36,79.5C 36.49,80.7932 36.6567,82.1266 36.5,83.5 Z"/></g>
<g><path style="opacity:1" fill="#2d1a2c" d="M 86.5,83.5 C 84.8333,83.5 83.1667,83.5 81.5,83.5C 81.687,81.4357 82.187,79.4357 83,77.5C 85.0664,74.7019 86.5664,75.0352 87.5,78.5C 85.5764,79.9653 85.2431,81.632 86.5,83.5 Z"/></g>
<g><path style="opacity:1" fill="#271623" d="M 7.5,69.5 C 7.5,70.8333 7.5,72.1667 7.5,73.5C 7.94232,76.3426 8.94232,79.0093 10.5,81.5C 10.1373,82.1835 9.80393,82.8501 9.5,83.5C 8.83333,83.5 8.16667,83.5 7.5,83.5C 6.16667,78.8333 6.16667,74.1667 7.5,69.5 Z"/></g>
<g><path style="opacity:1" fill="#bd5053" d="M 48.5,73.5 C 49.1667,74.1667 49.8333,74.8333 50.5,75.5C 51.3705,78.003 52.0372,80.6697 52.5,83.5C 50.1667,83.5 47.8333,83.5 45.5,83.5C 46.4925,80.1771 47.4925,76.8437 48.5,73.5 Z"/></g>
<g><path style="opacity:1" fill="#893b49" d="M 42.5,79.5 C 42.5,80.8333 42.5,82.1667 42.5,83.5C 41.1667,83.5 39.8333,83.5 38.5,83.5C 38.4606,82.4168 38.1272,81.4168 37.5,80.5C 38.769,75.8081 40.4357,75.4748 42.5,79.5 Z"/></g>
<g><path style="opacity:1" fill="#993f4a" d="M 59.5,83.5 C 58.5,83.5 57.5,83.5 56.5,83.5C 55.9035,81.602 55.9035,79.9354 56.5,78.5C 57.2216,78.0825 57.7216,77.4158 58,76.5C 59.2022,78.6775 59.7022,81.0108 59.5,83.5 Z"/></g>
<g><path style="opacity:1" fill="#040103" d="M 92.5,69.5 C 93.6484,73.9811 93.8151,78.6478 93,83.5C 88.9341,84.4637 84.7675,84.797 80.5,84.5C 80.5,88.1667 80.5,91.8333 80.5,95.5C 66.4346,94.7021 52.1013,94.7021 37.5,95.5C 37.6567,94.1266 37.49,92.7932 37,91.5C 34.6667,96.8333 32.3333,96.8333 30,91.5C 29.6905,92.7659 29.1905,93.9326 28.5,95C 26.1667,95.6667 23.8333,95.6667 21.5,95C 20.1667,91.6667 20.1667,88.3333 21.5,85C 16.6486,84.8255 11.9819,84.3255 7.5,83.5C 8.16667,83.5 8.83333,83.5 9.5,83.5C 10.1667,83.5 10.8333,83.5 11.5,83.5C 12.5,83.5 13.5,83.5 14.5,83.5C 15.5,83.5 16.5,83.5 17.5,83.5C 18.5,83.5 19.5,83.5 20.5,83.5C 21.8333,83.5 23.1667,83.5 24.5,83.5C 25.5,83.5 26.5,83.5 27.5,83.5C 28.5,83.5 29.5,83.5 30.5,83.5C 32.5,83.5 34.5,83.5 36.5,83.5C 37.1667,83.5 37.8333,83.5 38.5,83.5C 39.8333,83.5 41.1667,83.5 42.5,83.5C 43.5,83.5 44.5,83.5 45.5,83.5C 47.8333,83.5 50.1667,83.5 52.5,83.5C 53.8333,83.5 55.1667,83.5 56.5,83.5C 57.5,83.5 58.5,83.5 59.5,83.5C 60.1667,83.5 60.8333,83.5 61.5,83.5C 62.5,83.5 63.5,83.5 64.5,83.5C 65.9587,83.5674 67.2921,83.2341 68.5,82.5C 68.8417,83.3382 69.5084,83.6716 70.5,83.5C 71.8333,83.5 73.1667,83.5 74.5,83.5C 75.8333,83.5 77.1667,83.5 78.5,83.5C 79.5,83.5 80.5,83.5 81.5,83.5C 83.1667,83.5 84.8333,83.5 86.5,83.5C 87.4728,82.2086 88.4728,82.2086 89.5,83.5C 90.6808,81.8647 90.6808,80.198 89.5,78.5C 90.5543,76.7988 91.5543,75.1321 92.5,73.5C 92.5,72.1667 92.5,70.8333 92.5,69.5 Z"/></g>
<g><path style="opacity:1" fill="#fcfaf8" d="M 22.5,85.5 C 24.4672,85.2606 26.3005,85.5939 28,86.5C 28.769,89.0991 28.6023,91.5991 27.5,94C 25.5594,94.7429 23.7261,94.5762 22,93.5C 21.2782,90.7395 21.4448,88.0728 22.5,85.5 Z"/></g>
<g><path style="opacity:1" fill="#fbfbf5" d="M 38.5,85.5 C 44.6966,85.3251 45.3633,86.3251 40.5,88.5C 44.5,89.8333 44.5,91.1667 40.5,92.5C 41.7287,93.2811 43.062,93.7811 44.5,94C 42.5273,94.4955 40.5273,94.6621 38.5,94.5C 38.5,91.5 38.5,88.5 38.5,85.5 Z"/></g>
<g><path style="opacity:1" fill="#000000" d="M 23.5,87.5 C 24.5,87.5 25.5,87.5 26.5,87.5C 26.5,89.5 26.5,91.5 26.5,93.5C 25.5,93.5 24.5,93.5 23.5,93.5C 23.5,91.5 23.5,89.5 23.5,87.5 Z"/></g>
<g><path style="opacity:1" fill="#fafaf6" d="M 29.5,85.5 C 31.3638,86.9784 32.6971,88.9784 33.5,91.5C 34.5428,89.2166 35.2094,87.2166 35.5,85.5C 36.8858,88.9002 36.2191,91.9002 33.5,94.5C 31.3418,91.8515 30.0084,88.8515 29.5,85.5 Z"/></g>
<g><path style="opacity:1" fill="#f3f5e6" d="M 72.5,85.5 C 74.6237,86.0312 76.1237,87.3645 77,89.5C 77.2189,88.062 77.7189,86.7287 78.5,85.5C 79.8333,88.5 79.8333,91.5 78.5,94.5C 77.1076,93.3947 75.941,92.0614 75,90.5C 74.7811,91.938 74.2811,93.2713 73.5,94.5C 72.5159,91.5719 72.1826,88.5719 72.5,85.5 Z"/></g>
<g><path style="opacity:1" fill="#fafbf2" d="M 46.5,85.5 C 48.7925,85.2436 50.9592,85.5769 53,86.5C 53.6836,88.4789 53.1836,90.1456 51.5,91.5C 53.4161,95.5216 52.7494,95.5216 49.5,91.5C 48.8333,92.5 48.1667,93.5 47.5,94.5C 46.5159,91.5719 46.1826,88.5719 46.5,85.5 Z"/></g>
<g><path style="opacity:1" fill="#000000" d="M 48.5,87.5 C 51.9571,87.6672 52.2904,88.6672 49.5,90.5C 48.6143,89.675 48.281,88.675 48.5,87.5 Z"/></g>
<g><path style="opacity:1" fill="#fafcef" d="M 55.5,85.5 C 57.7925,85.2436 59.9592,85.5769 62,86.5C 62.6836,88.4789 62.1836,90.1456 60.5,91.5C 62.4161,95.5216 61.7494,95.5216 58.5,91.5C 57.8333,92.5 57.1667,93.5 56.5,94.5C 55.5159,91.5719 55.1826,88.5719 55.5,85.5 Z"/></g>
<g><path style="opacity:1" fill="#000000" d="M 57.5,87.5 C 60.9571,87.6672 61.2904,88.6672 58.5,90.5C 57.6143,89.675 57.281,88.675 57.5,87.5 Z"/></g>
<g><path style="opacity:1" fill="#f9faee" d="M 64.5,85.5 C 66.0799,87.7171 67.0799,90.3837 67.5,93.5C 68.086,93.2907 68.586,92.9574 69,92.5C 69.1858,90.0995 69.6858,87.7662 70.5,85.5C 70.8333,85.6667 71.1667,85.8333 71.5,86C 70.8333,88.6667 70.1667,91.3333 69.5,94C 67.8876,94.7203 66.3876,94.5536 65,93.5C 64.5026,90.854 64.3359,88.1873 64.5,85.5 Z"/></g>
</svg>
